<svg xmlns="http://www.w3.org/2000/svg" viewBox="0 0 1600 1000" width="1600" height="1000" role="img" aria-label="An AI image generation interface showing a prompt field, generation settings and a grid of resulting images.">
  <defs>
    <filter id="rough" x="-5%" y="-5%" width="110%" height="110%">
      <feTurbulence type="fractalNoise" baseFrequency="0.012" numOctaves="4" seed="461" result="n"/>
      <feDisplacementMap in="SourceGraphic" in2="n" scale="26" xChannelSelector="R" yChannelSelector="G"/>
    </filter>
    <filter id="tooth" x="0" y="0" width="100%" height="100%">
      <feTurbulence type="fractalNoise" baseFrequency="0.9" numOctaves="3" stitchTiles="stitch"/>
      <feColorMatrix type="saturate" values="0"/>
    </filter>
    <linearGradient id="ground" x1="0" y1="0" x2="0" y2="1">
      <stop offset="0%" stop-color="#d39f9f"/>
      <stop offset="100%" stop-color="#654545"/>
    </linearGradient>
  </defs>

  <rect width="1600" height="1000" fill="url(#ground)"/>
  <g filter="url(#rough)"><rect x="1066.3" y="855.9" width="105.2" height="11.0" rx="5.5" fill="#795353" opacity="0.25" transform="rotate(22.5 1066.3 855.9)"/><rect x="825.4" y="349.4" width="172.1" height="26.9" rx="13.4" fill="#F4C10F" opacity="0.39" transform="rotate(14.8 825.4 349.4)"/><rect x="482.4" y="912.6" width="194.8" height="22.2" rx="11.1" fill="#E8DFCC" opacity="0.38" transform="rotate(7.6 482.4 912.6)"/><rect x="1097.5" y="272.6" width="140.0" height="6.2" rx="3.1" fill="#C98A8A" opacity="0.65" transform="rotate(-7.0 1097.5 272.6)"/><rect x="1067.8" y="535.3" width="147.3" height="23.2" rx="11.6" fill="#E8DFCC" opacity="0.44" transform="rotate(32.0 1067.8 535.3)"/><rect x="285.4" y="820.1" width="97.6" height="27.8" rx="13.9" fill="#E8DFCC" opacity="0.61" transform="rotate(16.0 285.4 820.1)"/><rect x="485.8" y="505.2" width="260.2" height="13.9" rx="7.0" fill="#795353" opacity="0.51" transform="rotate(0.3 485.8 505.2)"/><rect x="787.2" y="383.2" width="165.8" height="8.3" rx="4.1" fill="#E8DFCC" opacity="0.44" transform="rotate(16.8 787.2 383.2)"/><rect x="326.9" y="144.4" width="257.6" height="9.5" rx="4.7" fill="#d8abab" opacity="0.60" transform="rotate(24.9 326.9 144.4)"/><rect x="881.6" y="340.6" width="264.3" height="8.4" rx="4.2" fill="#d8abab" opacity="0.28" transform="rotate(31.0 881.6 340.6)"/><rect x="1283.1" y="1.6" width="256.7" height="20.3" rx="10.2" fill="#F4C10F" opacity="0.19" transform="rotate(-11.6 1283.1 1.6)"/><rect x="1399.2" y="814.0" width="72.4" height="25.2" rx="12.6" fill="#d8abab" opacity="0.45" transform="rotate(39.5 1399.2 814.0)"/><rect x="665.2" y="782.8" width="87.7" height="29.0" rx="14.5" fill="#E8DFCC" opacity="0.33" transform="rotate(10.8 665.2 782.8)"/><rect x="1372.1" y="456.6" width="235.3" height="25.9" rx="12.9" fill="#E8DFCC" opacity="0.37" transform="rotate(5.6 1372.1 456.6)"/><rect x="182.1" y="973.0" width="83.7" height="25.6" rx="12.8" fill="#C98A8A" opacity="0.43" transform="rotate(40.7 182.1 973.0)"/><rect x="215.3" y="916.0" width="196.1" height="16.0" rx="8.0" fill="#E8DFCC" opacity="0.60" transform="rotate(10.8 215.3 916.0)"/><rect x="1229.0" y="824.3" width="224.9" height="25.8" rx="12.9" fill="#F4C10F" opacity="0.32" transform="rotate(42.8 1229.0 824.3)"/><rect x="1172.8" y="914.9" width="89.3" height="15.9" rx="8.0" fill="#E8DFCC" opacity="0.59" transform="rotate(47.0 1172.8 914.9)"/><rect x="1116.0" y="913.0" width="240.5" height="6.9" rx="3.5" fill="#E8DFCC" opacity="0.28" transform="rotate(16.5 1116.0 913.0)"/><rect x="717.6" y="296.0" width="82.9" height="22.1" rx="11.0" fill="#C98A8A" opacity="0.31" transform="rotate(23.6 717.6 296.0)"/><rect x="916.1" y="809.0" width="77.6" height="28.5" rx="14.2" fill="#d8abab" opacity="0.45" transform="rotate(39.1 916.1 809.0)"/><rect x="882.1" y="518.3" width="160.3" height="27.8" rx="13.9" fill="#d8abab" opacity="0.50" transform="rotate(-0.8 882.1 518.3)"/><rect x="1383.3" y="486.3" width="97.7" height="17.9" rx="9.0" fill="#C98A8A" opacity="0.42" transform="rotate(34.0 1383.3 486.3)"/><rect x="692.6" y="739.8" width="313.4" height="22.9" rx="11.5" fill="#795353" opacity="0.63" transform="rotate(6.0 692.6 739.8)"/><rect x="789.4" y="890.9" width="130.6" height="29.2" rx="14.6" fill="#d8abab" opacity="0.30" transform="rotate(13.7 789.4 890.9)"/><rect x="74.8" y="674.5" width="279.8" height="8.9" rx="4.5" fill="#C98A8A" opacity="0.22" transform="rotate(12.3 74.8 674.5)"/><rect x="882.3" y="256.4" width="188.5" height="13.9" rx="7.0" fill="#795353" opacity="0.19" transform="rotate(29.2 882.3 256.4)"/><rect x="1413.9" y="409.6" width="67.2" height="27.2" rx="13.6" fill="#d8abab" opacity="0.44" transform="rotate(17.9 1413.9 409.6)"/><rect x="749.7" y="302.5" width="72.0" height="19.7" rx="9.8" fill="#d8abab" opacity="0.65" transform="rotate(-2.3 749.7 302.5)"/><rect x="1486.8" y="123.3" width="199.9" height="9.9" rx="4.9" fill="#d8abab" opacity="0.32" transform="rotate(-13.8 1486.8 123.3)"/><rect x="1449.2" y="34.5" width="190.6" height="24.6" rx="12.3" fill="#795353" opacity="0.36" transform="rotate(4.4 1449.2 34.5)"/><rect x="133.9" y="163.5" width="66.7" height="10.8" rx="5.4" fill="#C98A8A" opacity="0.48" transform="rotate(24.7 133.9 163.5)"/><rect x="526.4" y="23.0" width="314.0" height="14.0" rx="7.0" fill="#F4C10F" opacity="0.29" transform="rotate(-7.3 526.4 23.0)"/><rect x="728.3" y="50.8" width="319.2" height="7.9" rx="3.9" fill="#d8abab" opacity="0.57" transform="rotate(-3.7 728.3 50.8)"/><rect x="1467.7" y="197.7" width="160.9" height="10.2" rx="5.1" fill="#E8DFCC" opacity="0.31" transform="rotate(-4.0 1467.7 197.7)"/><rect x="839.4" y="860.8" width="261.3" height="30.2" rx="15.1" fill="#d8abab" opacity="0.54" transform="rotate(4.4 839.4 860.8)"/><rect x="1446.1" y="469.7" width="191.9" height="9.5" rx="4.8" fill="#d8abab" opacity="0.60" transform="rotate(2.1 1446.1 469.7)"/><rect x="607.7" y="304.7" width="195.5" height="15.4" rx="7.7" fill="#F4C10F" opacity="0.21" transform="rotate(-4.9 607.7 304.7)"/><rect x="195.9" y="335.5" width="84.2" height="20.1" rx="10.0" fill="#C98A8A" opacity="0.37" transform="rotate(-4.9 195.9 335.5)"/><rect x="1146.4" y="219.5" width="78.6" height="27.4" rx="13.7" fill="#d8abab" opacity="0.50" transform="rotate(1.9 1146.4 219.5)"/><rect x="967.3" y="272.2" width="150.4" height="12.4" rx="6.2" fill="#d8abab" opacity="0.48" transform="rotate(18.1 967.3 272.2)"/><rect x="1076.6" y="236.0" width="277.0" height="16.5" rx="8.2" fill="#795353" opacity="0.62" transform="rotate(-12.2 1076.6 236.0)"/><rect x="1323.7" y="121.3" width="117.0" height="23.3" rx="11.7" fill="#F4C10F" opacity="0.24" transform="rotate(25.3 1323.7 121.3)"/><rect x="772.6" y="260.6" width="256.1" height="16.3" rx="8.1" fill="#d8abab" opacity="0.32" transform="rotate(9.7 772.6 260.6)"/><rect x="1151.2" y="949.3" width="149.6" height="19.6" rx="9.8" fill="#C98A8A" opacity="0.56" transform="rotate(28.3 1151.2 949.3)"/><rect x="691.5" y="304.3" width="83.4" height="30.6" rx="15.3" fill="#E8DFCC" opacity="0.45" transform="rotate(13.9 691.5 304.3)"/><rect x="1556.7" y="221.2" width="282.0" height="19.0" rx="9.5" fill="#F4C10F" opacity="0.46" transform="rotate(7.6 1556.7 221.2)"/><rect x="1370.9" y="623.4" width="147.8" height="6.2" rx="3.1" fill="#F4C10F" opacity="0.41" transform="rotate(15.0 1370.9 623.4)"/><rect x="1417.6" y="400.9" width="80.5" height="6.6" rx="3.3" fill="#d8abab" opacity="0.65" transform="rotate(11.0 1417.6 400.9)"/><rect x="1316.0" y="839.1" width="142.4" height="11.5" rx="5.7" fill="#795353" opacity="0.57" transform="rotate(42.1 1316.0 839.1)"/><rect x="1451.5" y="616.3" width="302.6" height="6.3" rx="3.1" fill="#E8DFCC" opacity="0.43" transform="rotate(13.7 1451.5 616.3)"/><rect x="1501.0" y="967.9" width="212.0" height="29.5" rx="14.7" fill="#C98A8A" opacity="0.48" transform="rotate(23.0 1501.0 967.9)"/><rect x="951.0" y="242.1" width="157.7" height="18.9" rx="9.5" fill="#d8abab" opacity="0.38" transform="rotate(-10.1 951.0 242.1)"/><rect x="582.6" y="426.0" width="189.2" height="20.9" rx="10.5" fill="#F4C10F" opacity="0.40" transform="rotate(24.2 582.6 426.0)"/><rect x="778.8" y="578.7" width="175.2" height="31.7" rx="15.8" fill="#F4C10F" opacity="0.18" transform="rotate(20.5 778.8 578.7)"/><rect x="872.9" y="328.3" width="249.6" height="7.4" rx="3.7" fill="#d8abab" opacity="0.38" transform="rotate(-2.6 872.9 328.3)"/><rect x="513.8" y="95.2" width="298.9" height="27.5" rx="13.8" fill="#795353" opacity="0.32" transform="rotate(16.1 513.8 95.2)"/><rect x="785.7" y="774.8" width="288.5" height="21.0" rx="10.5" fill="#C98A8A" opacity="0.66" transform="rotate(4.6 785.7 774.8)"/><rect x="771.2" y="163.1" width="147.8" height="6.2" rx="3.1" fill="#C98A8A" opacity="0.52" transform="rotate(-15.7 771.2 163.1)"/><rect x="1175.9" y="859.7" width="115.9" height="14.1" rx="7.0" fill="#795353" opacity="0.43" transform="rotate(39.9 1175.9 859.7)"/><rect x="32.2" y="963.2" width="154.3" height="25.4" rx="12.7" fill="#795353" opacity="0.32" transform="rotate(49.9 32.2 963.2)"/><rect x="1167.2" y="630.7" width="276.9" height="31.9" rx="15.9" fill="#E8DFCC" opacity="0.56" transform="rotate(10.6 1167.2 630.7)"/><rect x="313.5" y="442.1" width="299.7" height="30.0" rx="15.0" fill="#C98A8A" opacity="0.22" transform="rotate(8.9 313.5 442.1)"/><rect x="776.1" y="171.3" width="136.2" height="8.3" rx="4.1" fill="#F4C10F" opacity="0.25" transform="rotate(-3.9 776.1 171.3)"/><rect x="469.8" y="994.5" width="189.4" height="20.9" rx="10.4" fill="#E8DFCC" opacity="0.63" transform="rotate(42.2 469.8 994.5)"/><rect x="56.7" y="592.3" width="283.0" height="26.4" rx="13.2" fill="#d8abab" opacity="0.24" transform="rotate(4.2 56.7 592.3)"/><rect x="309.1" y="782.5" width="139.8" height="7.0" rx="3.5" fill="#C98A8A" opacity="0.29" transform="rotate(5.9 309.1 782.5)"/><rect x="1549.1" y="335.9" width="288.5" height="17.4" rx="8.7" fill="#d8abab" opacity="0.55" transform="rotate(1.3 1549.1 335.9)"/><rect x="464.0" y="400.0" width="62.5" height="27.3" rx="13.7" fill="#C98A8A" opacity="0.42" transform="rotate(-5.6 464.0 400.0)"/><rect x="1358.4" y="333.4" width="154.3" height="22.7" rx="11.4" fill="#C98A8A" opacity="0.62" transform="rotate(29.0 1358.4 333.4)"/><rect x="388.8" y="772.7" width="310.6" height="14.5" rx="7.2" fill="#d8abab" opacity="0.61" transform="rotate(31.0 388.8 772.7)"/><rect x="745.5" y="335.1" width="143.9" height="20.7" rx="10.4" fill="#C98A8A" opacity="0.35" transform="rotate(26.2 745.5 335.1)"/><rect x="1321.9" y="680.1" width="153.3" height="15.4" rx="7.7" fill="#d8abab" opacity="0.57" transform="rotate(1.6 1321.9 680.1)"/><rect x="1434.5" y="635.8" width="101.3" height="15.4" rx="7.7" fill="#d8abab" opacity="0.56" transform="rotate(20.5 1434.5 635.8)"/><rect x="310.6" y="857.2" width="153.6" height="16.2" rx="8.1" fill="#C98A8A" opacity="0.24" transform="rotate(15.2 310.6 857.2)"/><rect x="1421.2" y="116.6" width="239.6" height="29.7" rx="14.8" fill="#d8abab" opacity="0.62" transform="rotate(23.6 1421.2 116.6)"/><rect x="1066.8" y="968.9" width="161.1" height="26.3" rx="13.1" fill="#F4C10F" opacity="0.59" transform="rotate(11.0 1066.8 968.9)"/><rect x="1392.5" y="537.5" width="80.2" height="26.6" rx="13.3" fill="#F4C10F" opacity="0.34" transform="rotate(33.4 1392.5 537.5)"/><rect x="671.7" y="37.7" width="264.9" height="6.6" rx="3.3" fill="#C98A8A" opacity="0.40" transform="rotate(14.2 671.7 37.7)"/><rect x="378.4" y="884.5" width="251.0" height="18.3" rx="9.2" fill="#d8abab" opacity="0.21" transform="rotate(7.8 378.4 884.5)"/><rect x="1006.8" y="765.6" width="102.0" height="22.9" rx="11.4" fill="#E8DFCC" opacity="0.27" transform="rotate(18.7 1006.8 765.6)"/><rect x="780.4" y="783.5" width="78.6" height="11.7" rx="5.9" fill="#F4C10F" opacity="0.25" transform="rotate(19.6 780.4 783.5)"/><rect x="1478.0" y="298.0" width="108.7" height="21.4" rx="10.7" fill="#d8abab" opacity="0.37" transform="rotate(30.6 1478.0 298.0)"/><rect x="894.9" y="65.6" width="255.0" height="6.3" rx="3.1" fill="#E8DFCC" opacity="0.57" transform="rotate(7.7 894.9 65.6)"/><rect x="1344.1" y="603.6" width="206.8" height="27.1" rx="13.6" fill="#E8DFCC" opacity="0.63" transform="rotate(36.0 1344.1 603.6)"/><rect x="125.7" y="118.1" width="146.2" height="19.4" rx="9.7" fill="#E8DFCC" opacity="0.42" transform="rotate(6.9 125.7 118.1)"/><rect x="1385.0" y="581.1" width="159.7" height="18.0" rx="9.0" fill="#795353" opacity="0.52" transform="rotate(13.1 1385.0 581.1)"/><rect x="1185.3" y="95.6" width="210.0" height="30.3" rx="15.1" fill="#E8DFCC" opacity="0.33" transform="rotate(-11.9 1185.3 95.6)"/><rect x="312.5" y="730.7" width="274.3" height="19.9" rx="10.0" fill="#C98A8A" opacity="0.20" transform="rotate(16.9 312.5 730.7)"/><rect x="924.1" y="654.7" width="142.4" height="28.9" rx="14.4" fill="#795353" opacity="0.29" transform="rotate(6.4 924.1 654.7)"/><rect x="1089.6" y="667.1" width="171.1" height="26.8" rx="13.4" fill="#C98A8A" opacity="0.54" transform="rotate(33.6 1089.6 667.1)"/><rect x="858.9" y="313.6" width="80.7" height="11.3" rx="5.7" fill="#d8abab" opacity="0.32" transform="rotate(-7.9 858.9 313.6)"/><rect x="659.9" y="250.9" width="102.4" height="13.6" rx="6.8" fill="#d8abab" opacity="0.54" transform="rotate(9.4 659.9 250.9)"/><rect x="31.9" y="756.1" width="92.2" height="15.0" rx="7.5" fill="#F4C10F" opacity="0.30" transform="rotate(12.4 31.9 756.1)"/><rect x="622.1" y="735.8" width="293.6" height="21.9" rx="10.9" fill="#E8DFCC" opacity="0.25" transform="rotate(5.6 622.1 735.8)"/><rect x="1207.4" y="106.4" width="319.2" height="31.3" rx="15.7" fill="#C98A8A" opacity="0.63" transform="rotate(12.0 1207.4 106.4)"/><rect x="1108.9" y="392.0" width="86.1" height="16.8" rx="8.4" fill="#C98A8A" opacity="0.62" transform="rotate(7.5 1108.9 392.0)"/><rect x="787.8" y="789.2" width="313.5" height="17.1" rx="8.6" fill="#C98A8A" opacity="0.29" transform="rotate(24.7 787.8 789.2)"/><rect x="1475.6" y="306.6" width="61.7" height="20.8" rx="10.4" fill="#C98A8A" opacity="0.25" transform="rotate(10.5 1475.6 306.6)"/><rect x="1226.3" y="796.0" width="97.1" height="21.2" rx="10.6" fill="#C98A8A" opacity="0.33" transform="rotate(35.1 1226.3 796.0)"/><rect x="608.8" y="557.7" width="86.6" height="9.3" rx="4.6" fill="#C98A8A" opacity="0.45" transform="rotate(21.5 608.8 557.7)"/><rect x="40.5" y="875.8" width="115.9" height="15.2" rx="7.6" fill="#d8abab" opacity="0.59" transform="rotate(14.1 40.5 875.8)"/><rect x="11.6" y="569.4" width="98.0" height="9.0" rx="4.5" fill="#d8abab" opacity="0.64" transform="rotate(24.8 11.6 569.4)"/><rect x="1576.4" y="520.7" width="302.1" height="29.1" rx="14.5" fill="#C98A8A" opacity="0.44" transform="rotate(15.2 1576.4 520.7)"/><rect x="0.7" y="317.8" width="149.4" height="11.3" rx="5.6" fill="#E8DFCC" opacity="0.55" transform="rotate(-0.5 0.7 317.8)"/><rect x="982.1" y="147.5" width="255.4" height="15.9" rx="7.9" fill="#d8abab" opacity="0.58" transform="rotate(-8.9 982.1 147.5)"/><rect x="148.4" y="222.6" width="183.3" height="19.9" rx="9.9" fill="#F4C10F" opacity="0.50" transform="rotate(22.9 148.4 222.6)"/><rect x="219.3" y="550.1" width="170.5" height="15.0" rx="7.5" fill="#C98A8A" opacity="0.66" transform="rotate(-1.1 219.3 550.1)"/><rect x="602.8" y="322.1" width="260.2" height="28.4" rx="14.2" fill="#F4C10F" opacity="0.46" transform="rotate(30.7 602.8 322.1)"/><rect x="727.4" y="759.8" width="311.3" height="8.6" rx="4.3" fill="#d8abab" opacity="0.62" transform="rotate(26.8 727.4 759.8)"/><rect x="1393.9" y="170.0" width="190.6" height="29.3" rx="14.6" fill="#d8abab" opacity="0.56" transform="rotate(0.8 1393.9 170.0)"/><rect x="1391.1" y="597.5" width="317.2" height="17.2" rx="8.6" fill="#E8DFCC" opacity="0.38" transform="rotate(-3.4 1391.1 597.5)"/><rect x="33.6" y="819.3" width="296.3" height="26.7" rx="13.3" fill="#795353" opacity="0.26" transform="rotate(35.4 33.6 819.3)"/><rect x="875.4" y="788.0" width="188.5" height="6.6" rx="3.3" fill="#795353" opacity="0.36" transform="rotate(26.2 875.4 788.0)"/><rect x="24.6" y="252.5" width="296.6" height="30.4" rx="15.2" fill="#F4C10F" opacity="0.67" transform="rotate(27.1 24.6 252.5)"/><rect x="1139.4" y="657.5" width="86.8" height="12.5" rx="6.2" fill="#d8abab" opacity="0.25" transform="rotate(10.3 1139.4 657.5)"/><rect x="400.5" y="414.9" width="312.9" height="19.1" rx="9.5" fill="#F4C10F" opacity="0.35" transform="rotate(1.2 400.5 414.9)"/><rect x="85.4" y="577.1" width="160.3" height="11.2" rx="5.6" fill="#F4C10F" opacity="0.64" transform="rotate(37.6 85.4 577.1)"/><rect x="978.3" y="292.7" width="188.9" height="12.8" rx="6.4" fill="#C98A8A" opacity="0.43" transform="rotate(17.6 978.3 292.7)"/><rect x="1315.1" y="458.9" width="75.9" height="25.2" rx="12.6" fill="#795353" opacity="0.29" transform="rotate(10.4 1315.1 458.9)"/><rect x="1112.2" y="169.2" width="247.2" height="31.6" rx="15.8" fill="#E8DFCC" opacity="0.52" transform="rotate(8.4 1112.2 169.2)"/><rect x="565.1" y="338.7" width="233.4" height="27.7" rx="13.8" fill="#E8DFCC" opacity="0.24" transform="rotate(23.3 565.1 338.7)"/><rect x="223.2" y="658.5" width="169.4" height="19.7" rx="9.9" fill="#d8abab" opacity="0.27" transform="rotate(27.9 223.2 658.5)"/><rect x="1299.5" y="682.9" width="198.0" height="18.0" rx="9.0" fill="#795353" opacity="0.39" transform="rotate(26.8 1299.5 682.9)"/><rect x="92.2" y="78.7" width="125.7" height="24.8" rx="12.4" fill="#C98A8A" opacity="0.38" transform="rotate(9.3 92.2 78.7)"/><rect x="66.3" y="324.1" width="187.1" height="19.0" rx="9.5" fill="#E8DFCC" opacity="0.53" transform="rotate(21.4 66.3 324.1)"/><rect x="22.4" y="412.9" width="201.8" height="9.2" rx="4.6" fill="#E8DFCC" opacity="0.65" transform="rotate(11.1 22.4 412.9)"/><rect x="1506.1" y="490.3" width="61.6" height="24.5" rx="12.3" fill="#F4C10F" opacity="0.44" transform="rotate(17.2 1506.1 490.3)"/><rect x="1506.2" y="248.5" width="129.8" height="24.1" rx="12.0" fill="#795353" opacity="0.39" transform="rotate(13.7 1506.2 248.5)"/><rect x="1360.9" y="547.9" width="176.5" height="9.4" rx="4.7" fill="#C98A8A" opacity="0.39" transform="rotate(14.1 1360.9 547.9)"/><rect x="775.2" y="442.8" width="104.3" height="10.3" rx="5.1" fill="#F4C10F" opacity="0.67" transform="rotate(23.0 775.2 442.8)"/><rect x="993.6" y="31.2" width="172.3" height="28.0" rx="14.0" fill="#F4C10F" opacity="0.46" transform="rotate(-4.5 993.6 31.2)"/><rect x="325.1" y="625.2" width="73.0" height="16.5" rx="8.2" fill="#E8DFCC" opacity="0.22" transform="rotate(11.7 325.1 625.2)"/><rect x="1362.1" y="856.2" width="78.3" height="17.6" rx="8.8" fill="#d8abab" opacity="0.21" transform="rotate(39.0 1362.1 856.2)"/><rect x="995.5" y="944.2" width="243.9" height="26.0" rx="13.0" fill="#F4C10F" opacity="0.46" transform="rotate(40.2 995.5 944.2)"/><rect x="570.9" y="386.0" width="143.3" height="8.5" rx="4.3" fill="#E8DFCC" opacity="0.65" transform="rotate(27.5 570.9 386.0)"/><rect x="356.6" y="732.1" width="77.0" height="31.1" rx="15.6" fill="#E8DFCC" opacity="0.64" transform="rotate(36.3 356.6 732.1)"/><rect x="49.6" y="731.0" width="300.6" height="13.5" rx="6.7" fill="#E8DFCC" opacity="0.46" transform="rotate(15.8 49.6 731.0)"/><rect x="524.4" y="949.6" width="270.6" height="29.4" rx="14.7" fill="#795353" opacity="0.36" transform="rotate(41.3 524.4 949.6)"/><rect x="396.4" y="947.6" width="111.4" height="26.7" rx="13.4" fill="#C98A8A" opacity="0.56" transform="rotate(44.2 396.4 947.6)"/><rect x="590.3" y="241.2" width="216.5" height="15.8" rx="7.9" fill="#C98A8A" opacity="0.20" transform="rotate(22.3 590.3 241.2)"/><rect x="751.6" y="529.7" width="206.1" height="13.0" rx="6.5" fill="#F4C10F" opacity="0.27" transform="rotate(6.3 751.6 529.7)"/><rect x="1515.0" y="379.7" width="216.6" height="8.5" rx="4.2" fill="#E8DFCC" opacity="0.26" transform="rotate(-2.2 1515.0 379.7)"/><rect x="261.7" y="36.9" width="68.1" height="21.5" rx="10.7" fill="#d8abab" opacity="0.23" transform="rotate(-17.5 261.7 36.9)"/><rect x="1120.4" y="398.5" width="116.6" height="9.8" rx="4.9" fill="#C98A8A" opacity="0.38" transform="rotate(1.6 1120.4 398.5)"/><rect x="587.3" y="837.5" width="269.1" height="26.5" rx="13.3" fill="#F4C10F" opacity="0.26" transform="rotate(14.9 587.3 837.5)"/><rect x="190.9" y="244.6" width="171.7" height="17.6" rx="8.8" fill="#C98A8A" opacity="0.34" transform="rotate(5.6 190.9 244.6)"/><rect x="629.8" y="609.6" width="92.8" height="19.4" rx="9.7" fill="#F4C10F" opacity="0.28" transform="rotate(31.6 629.8 609.6)"/><rect x="795.7" y="196.4" width="239.2" height="9.5" rx="4.8" fill="#E8DFCC" opacity="0.39" transform="rotate(27.5 795.7 196.4)"/><rect x="572.3" y="348.7" width="154.0" height="12.6" rx="6.3" fill="#C98A8A" opacity="0.34" transform="rotate(9.2 572.3 348.7)"/><rect x="529.4" y="321.0" width="312.0" height="21.5" rx="10.8" fill="#795353" opacity="0.50" transform="rotate(8.0 529.4 321.0)"/><rect x="861.7" y="775.2" width="213.2" height="10.2" rx="5.1" fill="#F4C10F" opacity="0.44" transform="rotate(40.8 861.7 775.2)"/><rect x="1214.9" y="457.7" width="293.2" height="10.7" rx="5.4" fill="#F4C10F" opacity="0.18" transform="rotate(31.2 1214.9 457.7)"/><rect x="1414.8" y="38.5" width="281.3" height="11.2" rx="5.6" fill="#C98A8A" opacity="0.52" transform="rotate(20.8 1414.8 38.5)"/><rect x="30.6" y="615.9" width="193.3" height="26.8" rx="13.4" fill="#795353" opacity="0.38" transform="rotate(9.8 30.6 615.9)"/><rect x="493.1" y="585.1" width="260.3" height="30.9" rx="15.5" fill="#d8abab" opacity="0.21" transform="rotate(7.2 493.1 585.1)"/><rect x="369.9" y="58.4" width="155.6" height="19.3" rx="9.7" fill="#795353" opacity="0.40" transform="rotate(-6.4 369.9 58.4)"/><rect x="954.0" y="396.0" width="231.4" height="29.9" rx="14.9" fill="#C98A8A" opacity="0.67" transform="rotate(5.8 954.0 396.0)"/><rect x="217.5" y="627.1" width="123.2" height="30.8" rx="15.4" fill="#d8abab" opacity="0.19" transform="rotate(-1.0 217.5 627.1)"/><rect x="1182.3" y="931.6" width="118.6" height="29.4" rx="14.7" fill="#F4C10F" opacity="0.42" transform="rotate(45.7 1182.3 931.6)"/><rect x="117.1" y="538.6" width="224.6" height="7.0" rx="3.5" fill="#F4C10F" opacity="0.49" transform="rotate(27.7 117.1 538.6)"/><rect x="67.9" y="138.8" width="259.0" height="29.0" rx="14.5" fill="#F4C10F" opacity="0.33" transform="rotate(4.1 67.9 138.8)"/><rect x="855.3" y="214.8" width="301.2" height="8.2" rx="4.1" fill="#d8abab" opacity="0.42" transform="rotate(26.8 855.3 214.8)"/><rect x="1518.1" y="825.3" width="275.1" height="27.1" rx="13.5" fill="#C98A8A" opacity="0.67" transform="rotate(25.3 1518.1 825.3)"/><rect x="1020.1" y="266.7" width="119.9" height="8.6" rx="4.3" fill="#C98A8A" opacity="0.25" transform="rotate(-7.5 1020.1 266.7)"/><rect x="522.6" y="454.0" width="288.0" height="27.2" rx="13.6" fill="#795353" opacity="0.62" transform="rotate(-1.5 522.6 454.0)"/><rect x="1085.3" y="549.6" width="224.3" height="16.3" rx="8.1" fill="#F4C10F" opacity="0.31" transform="rotate(2.0 1085.3 549.6)"/><rect x="1535.2" y="364.2" width="117.1" height="10.1" rx="5.1" fill="#E8DFCC" opacity="0.36" transform="rotate(1.7 1535.2 364.2)"/><rect x="1369.2" y="601.5" width="312.9" height="14.5" rx="7.3" fill="#C98A8A" opacity="0.18" transform="rotate(-3.8 1369.2 601.5)"/><rect x="1112.2" y="535.3" width="282.8" height="19.5" rx="9.7" fill="#795353" opacity="0.62" transform="rotate(31.7 1112.2 535.3)"/><rect x="4.6" y="132.4" width="188.0" height="18.1" rx="9.0" fill="#d8abab" opacity="0.29" transform="rotate(-16.8 4.6 132.4)"/><rect x="189.6" y="899.5" width="78.0" height="10.5" rx="5.3" fill="#E8DFCC" opacity="0.49" transform="rotate(47.5 189.6 899.5)"/><rect x="1385.3" y="496.6" width="264.2" height="22.1" rx="11.1" fill="#795353" opacity="0.34" transform="rotate(3.9 1385.3 496.6)"/><rect x="919.0" y="736.9" width="118.2" height="12.5" rx="6.3" fill="#795353" opacity="0.43" transform="rotate(21.4 919.0 736.9)"/><rect x="170.1" y="342.6" width="110.8" height="13.6" rx="6.8" fill="#E8DFCC" opacity="0.34" transform="rotate(15.8 170.1 342.6)"/><rect x="461.3" y="33.6" width="217.0" height="27.4" rx="13.7" fill="#795353" opacity="0.27" transform="rotate(-19.0 461.3 33.6)"/><rect x="1124.8" y="268.9" width="309.6" height="31.3" rx="15.7" fill="#795353" opacity="0.22" transform="rotate(-9.5 1124.8 268.9)"/><rect x="516.5" y="213.7" width="98.3" height="27.8" rx="13.9" fill="#d8abab" opacity="0.27" transform="rotate(-2.3 516.5 213.7)"/><rect x="1310.0" y="485.5" width="317.4" height="30.5" rx="15.3" fill="#E8DFCC" opacity="0.41" transform="rotate(24.8 1310.0 485.5)"/><rect x="825.4" y="514.0" width="305.9" height="14.9" rx="7.5" fill="#E8DFCC" opacity="0.45" transform="rotate(18.7 825.4 514.0)"/><rect x="34.6" y="1.9" width="246.1" height="30.2" rx="15.1" fill="#795353" opacity="0.64" transform="rotate(13.7 34.6 1.9)"/><rect x="599.4" y="274.0" width="68.6" height="29.8" rx="14.9" fill="#C98A8A" opacity="0.25" transform="rotate(28.0 599.4 274.0)"/><rect x="1103.9" y="768.6" width="96.6" height="13.9" rx="7.0" fill="#C98A8A" opacity="0.65" transform="rotate(5.4 1103.9 768.6)"/><rect x="328.1" y="49.5" width="138.0" height="25.0" rx="12.5" fill="#E8DFCC" opacity="0.22" transform="rotate(15.8 328.1 49.5)"/><rect x="417.2" y="372.8" width="251.6" height="18.0" rx="9.0" fill="#d8abab" opacity="0.40" transform="rotate(13.9 417.2 372.8)"/><rect x="194.1" y="338.1" width="281.9" height="25.2" rx="12.6" fill="#E8DFCC" opacity="0.47" transform="rotate(24.0 194.1 338.1)"/><rect x="329.4" y="760.4" width="184.9" height="16.5" rx="8.2" fill="#795353" opacity="0.61" transform="rotate(10.7 329.4 760.4)"/><rect x="704.8" y="995.7" width="255.6" height="6.5" rx="3.2" fill="#C98A8A" opacity="0.29" transform="rotate(48.0 704.8 995.7)"/><rect x="654.0" y="133.7" width="297.0" height="8.5" rx="4.3" fill="#795353" opacity="0.65" transform="rotate(-5.6 654.0 133.7)"/><rect x="1503.6" y="637.4" width="195.7" height="30.4" rx="15.2" fill="#F4C10F" opacity="0.50" transform="rotate(28.3 1503.6 637.4)"/><rect x="1019.8" y="969.7" width="159.7" height="17.0" rx="8.5" fill="#795353" opacity="0.18" transform="rotate(37.4 1019.8 969.7)"/><rect x="539.5" y="693.8" width="169.2" height="15.3" rx="7.6" fill="#d8abab" opacity="0.55" transform="rotate(3.0 539.5 693.8)"/><rect x="251.5" y="986.9" width="201.7" height="13.3" rx="6.6" fill="#795353" opacity="0.37" transform="rotate(14.7 251.5 986.9)"/><rect x="1251.4" y="200.1" width="294.6" height="20.1" rx="10.0" fill="#C98A8A" opacity="0.60" transform="rotate(16.5 1251.4 200.1)"/><rect x="1322.9" y="388.2" width="275.8" height="15.6" rx="7.8" fill="#E8DFCC" opacity="0.60" transform="rotate(10.4 1322.9 388.2)"/><rect x="1508.4" y="531.7" width="184.1" height="7.8" rx="3.9" fill="#C98A8A" opacity="0.64" transform="rotate(35.5 1508.4 531.7)"/><rect x="1100.4" y="240.9" width="206.3" height="10.7" rx="5.3" fill="#C98A8A" opacity="0.23" transform="rotate(19.3 1100.4 240.9)"/><rect x="904.3" y="341.7" width="219.2" height="7.9" rx="4.0" fill="#795353" opacity="0.64" transform="rotate(14.2 904.3 341.7)"/><rect x="1496.8" y="621.7" width="110.9" height="8.7" rx="4.3" fill="#C98A8A" opacity="0.30" transform="rotate(-1.4 1496.8 621.7)"/><rect x="641.4" y="417.8" width="66.1" height="29.1" rx="14.5" fill="#C98A8A" opacity="0.29" transform="rotate(29.9 641.4 417.8)"/><rect x="624.6" y="94.0" width="63.8" height="29.8" rx="14.9" fill="#C98A8A" opacity="0.62" transform="rotate(1.1 624.6 94.0)"/><rect x="507.2" y="430.2" width="217.1" height="24.2" rx="12.1" fill="#795353" opacity="0.24" transform="rotate(34.7 507.2 430.2)"/><rect x="684.0" y="936.1" width="272.9" height="16.4" rx="8.2" fill="#795353" opacity="0.55" transform="rotate(21.1 684.0 936.1)"/><rect x="1022.1" y="575.0" width="207.5" height="21.0" rx="10.5" fill="#795353" opacity="0.19" transform="rotate(11.4 1022.1 575.0)"/><rect x="293.8" y="935.0" width="265.1" height="30.3" rx="15.2" fill="#C98A8A" opacity="0.58" transform="rotate(30.8 293.8 935.0)"/><rect x="1573.3" y="489.4" width="269.6" height="26.8" rx="13.4" fill="#d8abab" opacity="0.32" transform="rotate(-3.0 1573.3 489.4)"/><rect x="312.6" y="313.5" width="111.8" height="19.3" rx="9.7" fill="#795353" opacity="0.37" transform="rotate(-5.7 312.6 313.5)"/><rect x="220.3" y="883.1" width="256.6" height="28.9" rx="14.5" fill="#E8DFCC" opacity="0.56" transform="rotate(43.7 220.3 883.1)"/><rect x="124.2" y="829.2" width="201.7" height="8.0" rx="4.0" fill="#E8DFCC" opacity="0.39" transform="rotate(6.0 124.2 829.2)"/><rect x="842.7" y="975.1" width="231.4" height="15.4" rx="7.7" fill="#F4C10F" opacity="0.27" transform="rotate(18.4 842.7 975.1)"/><rect x="1346.2" y="326.5" width="195.8" height="27.4" rx="13.7" fill="#d8abab" opacity="0.22" transform="rotate(17.6 1346.2 326.5)"/><rect x="1038.5" y="686.0" width="208.4" height="12.2" rx="6.1" fill="#E8DFCC" opacity="0.44" transform="rotate(35.9 1038.5 686.0)"/><rect x="1073.6" y="326.8" width="300.7" height="11.0" rx="5.5" fill="#d8abab" opacity="0.48" transform="rotate(11.8 1073.6 326.8)"/><rect x="319.2" y="932.9" width="134.3" height="23.2" rx="11.6" fill="#d8abab" opacity="0.62" transform="rotate(35.5 319.2 932.9)"/><rect x="769.5" y="638.0" width="122.7" height="21.9" rx="10.9" fill="#C98A8A" opacity="0.51" transform="rotate(37.3 769.5 638.0)"/><rect x="495.1" y="123.9" width="253.8" height="26.7" rx="13.3" fill="#F4C10F" opacity="0.28" transform="rotate(11.5 495.1 123.9)"/><rect x="1213.2" y="504.3" width="276.2" height="24.1" rx="12.1" fill="#F4C10F" opacity="0.26" transform="rotate(-2.0 1213.2 504.3)"/><rect x="1043.4" y="243.0" width="165.2" height="24.6" rx="12.3" fill="#F4C10F" opacity="0.41" transform="rotate(15.6 1043.4 243.0)"/><rect x="133.7" y="451.7" width="68.4" height="12.3" rx="6.2" fill="#F4C10F" opacity="0.66" transform="rotate(28.7 133.7 451.7)"/><rect x="524.9" y="25.7" width="293.4" height="21.6" rx="10.8" fill="#795353" opacity="0.63" transform="rotate(-11.7 524.9 25.7)"/><rect x="1412.9" y="626.9" width="177.3" height="8.4" rx="4.2" fill="#F4C10F" opacity="0.26" transform="rotate(28.1 1412.9 626.9)"/><rect x="743.4" y="460.4" width="84.6" height="21.7" rx="10.9" fill="#E8DFCC" opacity="0.20" transform="rotate(21.6 743.4 460.4)"/><rect x="499.8" y="780.5" width="206.0" height="30.4" rx="15.2" fill="#d8abab" opacity="0.59" transform="rotate(18.8 499.8 780.5)"/><rect x="1310.1" y="279.2" width="154.0" height="16.6" rx="8.3" fill="#C98A8A" opacity="0.34" transform="rotate(7.3 1310.1 279.2)"/><rect x="358.5" y="625.9" width="302.8" height="18.5" rx="9.3" fill="#d8abab" opacity="0.43" transform="rotate(24.5 358.5 625.9)"/><rect x="656.7" y="764.3" width="318.1" height="18.7" rx="9.4" fill="#E8DFCC" opacity="0.30" transform="rotate(20.3 656.7 764.3)"/><rect x="62.0" y="187.3" width="292.3" height="7.3" rx="3.7" fill="#795353" opacity="0.24" transform="rotate(-5.5 62.0 187.3)"/><rect x="682.8" y="208.3" width="286.7" height="18.5" rx="9.3" fill="#C98A8A" opacity="0.35" transform="rotate(-14.6 682.8 208.3)"/><rect x="774.4" y="316.6" width="293.9" height="30.2" rx="15.1" fill="#C98A8A" opacity="0.24" transform="rotate(16.5 774.4 316.6)"/><rect x="616.1" y="379.7" width="163.2" height="9.0" rx="4.5" fill="#d8abab" opacity="0.31" transform="rotate(-5.9 616.1 379.7)"/><rect x="247.4" y="640.1" width="239.8" height="31.8" rx="15.9" fill="#C98A8A" opacity="0.54" transform="rotate(10.1 247.4 640.1)"/><rect x="1577.5" y="897.3" width="120.3" height="21.2" rx="10.6" fill="#E8DFCC" opacity="0.28" transform="rotate(23.7 1577.5 897.3)"/><rect x="1568.9" y="748.9" width="133.2" height="26.9" rx="13.5" fill="#795353" opacity="0.52" transform="rotate(28.8 1568.9 748.9)"/><rect x="1574.6" y="468.0" width="177.7" height="28.8" rx="14.4" fill="#d8abab" opacity="0.27" transform="rotate(11.9 1574.6 468.0)"/><rect x="1082.5" y="481.3" width="117.2" height="8.8" rx="4.4" fill="#E8DFCC" opacity="0.57" transform="rotate(-3.4 1082.5 481.3)"/><rect x="284.6" y="223.9" width="138.5" height="11.4" rx="5.7" fill="#F4C10F" opacity="0.18" transform="rotate(25.3 284.6 223.9)"/><rect x="229.5" y="18.8" width="247.7" height="29.6" rx="14.8" fill="#E8DFCC" opacity="0.28" transform="rotate(9.8 229.5 18.8)"/><rect x="142.5" y="463.4" width="254.6" height="7.1" rx="3.6" fill="#d8abab" opacity="0.49" transform="rotate(27.0 142.5 463.4)"/><rect x="198.7" y="947.5" width="300.6" height="21.1" rx="10.5" fill="#d8abab" opacity="0.51" transform="rotate(27.8 198.7 947.5)"/><rect x="556.6" y="312.0" width="63.9" height="24.4" rx="12.2" fill="#E8DFCC" opacity="0.58" transform="rotate(-5.9 556.6 312.0)"/><rect x="760.0" y="725.1" width="215.9" height="28.4" rx="14.2" fill="#d8abab" opacity="0.23" transform="rotate(3.1 760.0 725.1)"/><rect x="4.7" y="4.3" width="214.2" height="28.8" rx="14.4" fill="#E8DFCC" opacity="0.40" transform="rotate(-15.6 4.7 4.3)"/><rect x="408.5" y="306.2" width="163.5" height="22.4" rx="11.2" fill="#795353" opacity="0.56" transform="rotate(8.2 408.5 306.2)"/><rect x="218.1" y="531.1" width="111.3" height="24.4" rx="12.2" fill="#F4C10F" opacity="0.19" transform="rotate(5.4 218.1 531.1)"/><rect x="694.3" y="168.7" width="240.6" height="27.3" rx="13.6" fill="#E8DFCC" opacity="0.29" transform="rotate(2.8 694.3 168.7)"/><rect x="1393.6" y="554.3" width="67.1" height="22.8" rx="11.4" fill="#795353" opacity="0.40" transform="rotate(1.7 1393.6 554.3)"/><rect x="1211.2" y="739.8" width="193.1" height="14.4" rx="7.2" fill="#d8abab" opacity="0.46" transform="rotate(0.5 1211.2 739.8)"/><rect x="1031.4" y="571.8" width="284.4" height="6.4" rx="3.2" fill="#C98A8A" opacity="0.20" transform="rotate(23.6 1031.4 571.8)"/><rect x="1419.9" y="838.5" width="244.6" height="30.6" rx="15.3" fill="#d8abab" opacity="0.30" transform="rotate(30.3 1419.9 838.5)"/><rect x="103.1" y="246.8" width="256.8" height="11.9" rx="6.0" fill="#E8DFCC" opacity="0.32" transform="rotate(-2.5 103.1 246.8)"/><rect x="439.9" y="550.0" width="172.1" height="8.9" rx="4.4" fill="#C98A8A" opacity="0.21" transform="rotate(8.6 439.9 550.0)"/><rect x="1327.8" y="990.6" width="92.9" height="8.1" rx="4.1" fill="#d8abab" opacity="0.55" transform="rotate(14.6 1327.8 990.6)"/><rect x="332.4" y="129.0" width="202.9" height="13.5" rx="6.8" fill="#E8DFCC" opacity="0.62" transform="rotate(10.5 332.4 129.0)"/><rect x="234.0" y="269.9" width="250.9" height="15.2" rx="7.6" fill="#E8DFCC" opacity="0.42" transform="rotate(-6.6 234.0 269.9)"/><rect x="613.3" y="592.6" width="209.2" height="6.0" rx="3.0" fill="#d8abab" opacity="0.33" transform="rotate(36.8 613.3 592.6)"/><rect x="390.8" y="832.3" width="66.0" height="22.8" rx="11.4" fill="#d8abab" opacity="0.41" transform="rotate(24.4 390.8 832.3)"/><rect x="232.4" y="726.8" width="308.6" height="23.7" rx="11.8" fill="#F4C10F" opacity="0.61" transform="rotate(0.6 232.4 726.8)"/><rect x="417.7" y="684.3" width="67.3" height="15.2" rx="7.6" fill="#F4C10F" opacity="0.34" transform="rotate(4.2 417.7 684.3)"/><rect x="320.5" y="602.9" width="97.8" height="31.6" rx="15.8" fill="#C98A8A" opacity="0.30" transform="rotate(12.8 320.5 602.9)"/><rect x="983.4" y="35.6" width="255.6" height="13.0" rx="6.5" fill="#795353" opacity="0.24" transform="rotate(14.1 983.4 35.6)"/></g>
  <rect width="1600" height="1000" filter="url(#tooth)" opacity="0.09" style="mix-blend-mode:overlay"/>

  <text x="80" y="904" font-family="Fraunces, Georgia, serif" font-size="104" font-weight="900"
        fill="#F5EFE6" opacity="0.94">Image Generation UI</text>
  <text x="84" y="954" font-family="Literata, Georgia, serif" font-size="34" font-style="italic"
        fill="#F5EFE6" opacity="0.7">Figma · 2024</text>
</svg>
